<?xml version="1.0" encoding="utf-8"?>
<!-- Generator: Adobe Illustrator 23.0.1, SVG Export Plug-In . SVG Version: 6.00 Build 0)  -->
<svg version="1.1" id="Layer_1" xmlns="http://www.w3.org/2000/svg" xmlns:xlink="http://www.w3.org/1999/xlink" x="0px" y="0px"
	 viewBox="0 0 612 792" style="enable-background:new 0 0 612 792;" xml:space="preserve">
<style type="text/css">
	.st0{fill:#FEFEFE;}
	.st1{fill:#DADADA;}
	.st2{fill:#5D5D5D;}
</style>
<g>
	<path class="st0" d="M613.87,2.2c-204,0-408,0-612,0c2.08-3.91,5.68-1.75,8.42-1.76C167.5,0.32,324.72,0.33,481.93,0.33
		c42.11,0,84.22-0.03,126.33,0.12C610.03,0.45,613.13-1.81,613.87,2.2z"/>
	<path d="M581.37,288.49c-2.94,153.82-116.26,268.53-269.04,267.99C161.33,555.95,46.44,441.82,46.39,287.97
		C46.35,140.82,160.21,16.98,324.15,22.11C466.62,26.57,578.51,137.59,581.37,288.49z"/>
	<path class="st1" d="M313.49,527.09C188.06,529.13,67.93,417.44,75.99,275.61c6.69-117.78,105.9-224.78,239.04-224.86
		c64.56-0.04,120.23,25.24,166.64,71.62c46.29,46.26,69.85,102.27,70.34,166.16c0.47,61.53-21.85,116.5-64.68,161.87
		C440.2,500.31,382.34,526.29,313.49,527.09z"/>
	<path d="M323.81,189.98c8.26,16.29,5.76,31.7-3.93,46.43c-4.58,6.97,1.98,11.71,3.69,17.18c1.1,3.51,4.27,7.96,10.54,5.96
		c3.67-1.17,8.02-0.34,12.06-0.22c9.75,0.27,14.48-3.02,15.46-12.75c0.52-5.19,1.16-10.43,0.64-15.97
		c-1.49-15.92,0.34-31.91,4.95-47.24c1.95-6.5,1.94-11.83-2.71-16.51c-2.22-2.23-2.33-4.9-3.32-7.41c-0.72-2.86-3.14-6.15,1.92-7.53
		c7.36,14.38,8.6,14.6,17.45,0.98c10.22-15.72,25.97-23.91,41.96-31.84c1.35-0.67,3.58-0.96,5.62,1.24
		c-7.72,6.41-16.33,11.52-23.73,18.25c-26.85,24.41-32.78,55.78-30.68,89.88c0.39,6.32,4.45,9.39,10.92,7.87
		c11.95-2.82,22.56-7.99,29.47-18.68c1.32-2.03,2.58-4.22,4.83-3.06c3.52,1.82,0.39,4.1-0.39,6.12
		c-6.6,17.04-21.49,22.57-37.37,25.61c-6.45,1.23-10.01,4.93-10.72,9.71c-0.66,4.46,4.3,5.88,8.86,7.25
		c13.68,4.12,27.09,9.22,39.19,17.1c10.83,7.06,13.57,16.27,9.83,29.38c-2.53,8.87-7.33,16.08-13.54,22.66
		c-15.57,16.5-32.95,31.2-47.37,48.84c-15.82,19.36-21.71,43.3-31.09,65.63c-3.3,7.85-6.5,15.73-9.64,23.65
		c-1.48,3.74-4.07,4.47-7.92,4.51c-23.48,0.26-46.3-2.72-68.58-10.71c-23.35-8.37-44.57-19.83-62.89-36.77
		c-5.4-4.99-10.8-9.7-15.53-15.48c-9.45-11.54-9.87-11.2,3.25-18.36c14.26-7.78,29.46-12.96,45.24-16.61
		c8.71-2.01,9.5-4.15,4.61-11.45c-8.99-13.41-13.4-14.56-33.28-10.07c-10.2,2.3-19.79-0.72-28.74-5.43
		c-2.17-1.14-5.5-3.24-4.63-6.37c1.51-5.48-2.49-6.4-5.66-7.22c-4.38-1.13-7.4-4.29-11.15-6.29c-1.64-0.87-3.84-4.14-3.36-5.01
		c5.49-10.13-4.43-15.57-7.06-23.02c-1.99-5.66-0.08-6.25,4.04-5.54c16.92,2.91,34,4.43,50.99,6.57
		c12.37,1.56,23.85-2.01,35.86-1.25c14.11,0.89,21.2,9.72,18.11,23.64c-2.2,9.91-5.38,19.86-2.99,30.28
		c2.56,11.18,6.53,12.71,15.06,5.94c14.02-11.11,23.65-24.86,28.12-42.5c2.09-8.23,0.9-12.33-7.56-15.33
		c-16.48-5.85-24.89-16.98-24.88-30.66c0.01-13.63,8.12-20.99,21.74-21.89c12.92-0.85,21.31,3.77,26.12,15.78
		c1.33,3.32,3.79,9.36,7.38,7.29c5.15-2.96,11.57-7.65,9.69-15.32c-2.87-11.71-8.54-22.13-17.2-30.78
		c-11.79-11.77-24.36-22.86-31.45-38.55c-1.47-3.26-4.72-5.04-9.12-5.28c-12.2-0.66-15.71-3.97-19.11-15.96
		c-0.65-2.32-2.76-5.14,1.92-5.66c2.41,3.87,4,8.18,7.6,11.4c2.75,2.46,6.3,3.88,8.98,3.07c3.61-1.09,5.01-4.89,4.74-9.17
		c-0.91-14.26,1.66-28.14,6.17-41.56c0.91-2.72,0.06-9.47,5.68-7.49c4.78,1.67,0.12,6.15-0.64,8.56
		c-4.76,15.19-5.84,30.57-3.1,46.05c2.36,13.36,12.26,22.58,21.21,31.49c5.38,5.36,11.67,10.17,16.8,15.87
		c5.48,6.08,8.53,3.72,11.78-1.7c5.28-8.82,6.44-18.44,5.57-28.46C322.24,191.74,322.7,190.72,323.81,189.98z"/>
	<path class="st2" d="M363.11,151.9c-3.1,1.88-1.42,4.99-1.92,7.53c-2.97-6.3-2.81-12.61-0.07-18.94c1.21,0.22,1.93,0.95,2.18,2.15
		C363.23,145.73,363.17,148.82,363.11,151.9z"/>
	<path class="st2" d="M363.3,142.65c-0.73-0.72-1.45-1.43-2.18-2.15c-0.21-3.42,1.01-6.28,4.74-10.49
		C364.33,135.45,366.45,139.34,363.3,142.65z"/>
	<path class="st2" d="M237.71,165c-2.61,1.22-1.63,3.66-1.92,5.66c-3.67-3.92-1.36-8.32-1.39-12.99
		C239.31,158.92,237.04,162.58,237.71,165z"/>
	<path class="st2" d="M323.81,189.98c1.65,1.91,1.37,3.01-1.3,3.09c-3.68-0.81-2.23-3.65-2.13-5.81c0.02-0.43,1.5-1.32,1.96-1.13
		C324.01,186.81,323.72,188.52,323.81,189.98z"/>
</g>
</svg>
